<?xml version="1.0" encoding="utf-8"?>
<!-- Generator: Adobe Illustrator 16.0.3, SVG Export Plug-In . SVG Version: 6.00 Build 0)  -->
<!DOCTYPE svg PUBLIC "-//W3C//DTD SVG 1.1//EN" "http://www.w3.org/Graphics/SVG/1.1/DTD/svg11.dtd">
<svg version="1.1" id="Layer_1" xmlns="http://www.w3.org/2000/svg" xmlns:xlink="http://www.w3.org/1999/xlink" x="0px" y="0px"
	 width="512px" height="512px" viewBox="0 0 512 512" enable-background="new 0 0 512 512" xml:space="preserve">
<path fill="#55C6DD" d="M385.386,171.487h-49.478v-17.809c0-43.531-35.415-78.947-78.948-78.947s-78.945,35.416-78.945,78.947
	v17.809h-51.398c-4.685,0-8.485,3.796-8.485,8.483v179.146c0,43.095,35.062,78.151,78.155,78.151h119.432
	c43.094,0,78.151-35.057,78.151-78.151V179.971C393.869,175.283,390.07,171.487,385.386,171.487z M193.267,153.679
	c0-35.122,28.572-63.694,63.693-63.694c35.12,0,63.696,28.572,63.696,63.694v17.809h-127.39V153.679z M376.901,359.117
	c0,33.735-27.447,61.184-61.184,61.184H196.286c-33.738,0-61.188-27.448-61.188-61.184V188.455h42.916v18.059
	c0,0.598,0.072,1.175,0.201,1.729c-5.645,2.754-9.543,8.534-9.543,15.239c0,9.372,7.594,16.968,16.968,16.968
	c9.37,0,16.967-7.596,16.967-16.968c0-6.705-3.9-12.483-9.546-15.239c0.129-0.554,0.205-1.131,0.205-1.729v-18.059h127.39v18.059
	c0,0.598,0.073,1.175,0.202,1.729c-5.646,2.754-9.543,8.534-9.543,15.239c0,9.372,7.594,16.968,16.968,16.968
	c9.37,0,16.967-7.596,16.967-16.968c0-6.705-3.901-12.483-9.544-15.239c0.127-0.554,0.202-1.131,0.202-1.729v-18.059h40.993V359.117
	z"/>
</svg>
