<?xml version="1.0" encoding="utf-8"?>
<!-- Generator: Adobe Illustrator 16.0.3, SVG Export Plug-In . SVG Version: 6.00 Build 0)  -->
<!DOCTYPE svg PUBLIC "-//W3C//DTD SVG 1.1//EN" "http://www.w3.org/Graphics/SVG/1.1/DTD/svg11.dtd">
<svg version="1.1" id="Layer_1" xmlns="http://www.w3.org/2000/svg" xmlns:xlink="http://www.w3.org/1999/xlink" x="0px" y="0px"
	 width="512px" height="512px" viewBox="0 0 512 512" enable-background="new 0 0 512 512" xml:space="preserve">
<path fill="#55C6DD" d="M366.291,169.062h-61.392c1.455-0.666,2.904-1.35,4.332-2.072c10.319-5.229,28.453-16.359,33.981-32.2
	c3.953-11.323,0.508-22.359-9.449-30.275c-4.505-3.589-9.933-5.484-15.701-5.484c-12.738,0-27.196,10.764-48.34,35.992
	c-4.563,5.444-9.17,11.418-13.718,17.781c-4.554-6.371-9.162-12.343-13.726-17.781c-21.15-25.229-35.609-35.992-48.343-35.992
	c-5.765,0-11.188,1.896-15.684,5.472c-9.967,7.925-13.417,18.965-9.466,30.288c5.53,15.841,23.668,26.972,33.987,32.2
	c1.429,0.723,2.873,1.406,4.331,2.072h-61.396c-4.686,0-8.483,3.8-8.483,8.484v226.941c0,4.687,3.798,8.483,8.483,8.483h220.582
	c4.685,0,8.483-3.797,8.483-8.483V177.546C374.774,172.861,370.976,169.062,366.291,169.062z M357.807,282.469h-93.314v-96.439
	h93.314V282.469z M282.727,145.92c21.821-26.033,31.509-29.923,35.336-29.923c1.913,0,3.642,0.603,5.137,1.792
	c5.595,4.451,4.96,8.643,3.994,11.407c-3.023,8.667-15.221,17.385-25.631,22.653c-10.051,5.089-20.994,8.652-31.392,10.314
	C274.345,156.347,278.56,150.891,282.727,145.92z M184.807,129.201c-0.965-2.768-1.599-6.961,4.01-11.421
	c1.488-1.183,3.209-1.783,5.12-1.783c3.828,0,13.509,3.89,35.344,29.927c4.162,4.963,8.377,10.414,12.561,16.24
	c-10.403-1.662-21.348-5.226-31.399-10.314C200.031,146.581,187.832,137.863,184.807,129.201z M247.525,186.029v96.439h-93.331
	v-96.439H247.525z M154.194,299.436h93.331v96.567h-93.331V299.436z M264.492,396.003v-96.567h93.314v96.567H264.492z"/>
</svg>
