<?xml version="1.0" encoding="utf-8"?>
<!-- Generator: Adobe Illustrator 16.0.3, SVG Export Plug-In . SVG Version: 6.00 Build 0)  -->
<!DOCTYPE svg PUBLIC "-//W3C//DTD SVG 1.1//EN" "http://www.w3.org/Graphics/SVG/1.1/DTD/svg11.dtd">
<svg version="1.1" id="Layer_1" xmlns="http://www.w3.org/2000/svg" xmlns:xlink="http://www.w3.org/1999/xlink" x="0px" y="0px"
	 width="512px" height="512px" viewBox="0 0 512 512" enable-background="new 0 0 512 512" xml:space="preserve">
<path fill="#55C6DD" d="M404.469,167.979h-76.354v-12.726c0-22.22-18.078-40.298-40.299-40.298h-63.628
	c-22.22,0-40.299,18.078-40.299,40.298v12.726h-76.358c-16.371,0-29.692,13.322-29.692,29.693v63.63V367.35
	c0,16.373,13.321,29.695,29.692,29.695h296.938c16.373,0,29.693-13.322,29.693-29.695V261.303v-63.63
	C434.162,181.301,420.842,167.979,404.469,167.979z M200.857,155.253c0-12.864,10.465-23.331,23.331-23.331h63.628
	c12.863,0,23.33,10.467,23.33,23.331v12.726h-110.29V155.253z M94.805,197.672c0-7.015,5.71-12.726,12.726-12.726h296.938
	c7.016,0,12.725,5.711,12.725,12.726v55.146H94.805V197.672z M309.025,269.787h42.42v24.035h-42.42V269.787z M160.56,269.787h42.417
	v24.035H160.56V269.787z M404.469,380.076H107.531c-7.016,0-12.726-5.711-12.726-12.727v-97.563h48.787v32.518
	c0,4.689,3.799,8.484,8.482,8.484h59.387c4.686,0,8.484-3.795,8.484-8.484v-32.518h72.113v32.518c0,4.689,3.797,8.484,8.482,8.484
	h59.387c4.686,0,8.484-3.795,8.484-8.484v-32.518h48.781v97.563C417.193,374.365,411.484,380.076,404.469,380.076z"/>
</svg>
