<?xml version="1.0" encoding="utf-8"?>
<!-- Generator: Adobe Illustrator 16.0.3, SVG Export Plug-In . SVG Version: 6.00 Build 0)  -->
<!DOCTYPE svg PUBLIC "-//W3C//DTD SVG 1.1//EN" "http://www.w3.org/Graphics/SVG/1.1/DTD/svg11.dtd">
<svg version="1.1" id="Layer_1" xmlns="http://www.w3.org/2000/svg" xmlns:xlink="http://www.w3.org/1999/xlink" x="0px" y="0px"
	 width="512px" height="512px" viewBox="0 0 512 512" enable-background="new 0 0 512 512" xml:space="preserve">
<g id="Open_Quran">
	<path fill="#55C6DD" d="M443.053,156.728l-22.982,10.326l-15.576-23.899c-5.41-8.329-7.328-0.502-57.793,4.497
		c-33.844,1.735-65.99,15.357-90.772,38.473c-24.783-23.115-56.93-36.737-90.774-38.473c-49.966-4.999-52.381-12.826-57.794-4.497
		l-15.572,23.899l-22.985-10.326c-19.569-9.076-21.067,54.131,24.151,72.951l98.934,40.39
		c-33.312,15.156-48.217,18.071-53.796,37.307c-1.415,4.928-1.672,10.116-0.751,15.157h-14.657
		c-13.798,0-24.982,11.187-24.982,24.984v16.655c0,4.6,3.728,8.328,8.328,8.328h299.8c4.596,0,8.324-3.729,8.324-8.328v-16.655
		c0-13.798-11.184-24.984-24.982-24.984h-14.656c2.789-15.144-5.164-30.223-19.236-36.476l-35.393-15.988l99.018-40.472
		C464.123,211.026,462.955,147.651,443.053,156.728z M118.271,157.227c53.297,12.326,86.277,0.582,131.911,46.303
		c3.239,3.265,8.513,3.288,11.777,0.049c0.016-0.018,0.033-0.032,0.051-0.049c45.553-45.553,79.029-34.062,131.91-46.303
		l10.992,16.655l-148.983,67.29l-148.733-67.12L118.271,157.227z M99.285,214.273c-15.311-6.364-25.633-20.924-26.566-37.476
		l162.891,73.53l-22.902,10.33L99.285,214.273z M389.172,339.188c4.602,0,8.328,3.729,8.328,8.329v8.327H114.356v-8.327
		c0-4.601,3.731-8.329,8.328-8.329H389.172z M191.721,322.532l64.208-26.232l64.206,26.232H191.721z M348.449,301.213
		c7.305,3.161,11.35,11.045,9.662,18.821l-80.197-32.727l20.736-8.329L348.449,301.213z M412.572,214.273L153.748,320.034
		c-0.664-2.735-0.664-5.592,0-8.329c3.079-10.658-17.154,1.167,284.975-135.158C437.996,193.108,427.826,207.777,412.572,214.273z"
		/>
</g>
</svg>
