<?xml version="1.0" encoding="utf-8"?>
<!-- Generator: Adobe Illustrator 16.0.3, SVG Export Plug-In . SVG Version: 6.00 Build 0)  -->
<!DOCTYPE svg PUBLIC "-//W3C//DTD SVG 1.1//EN" "http://www.w3.org/Graphics/SVG/1.1/DTD/svg11.dtd">
<svg version="1.1" id="Layer_1" xmlns="http://www.w3.org/2000/svg" xmlns:xlink="http://www.w3.org/1999/xlink" x="0px" y="0px"
	 width="512px" height="512px" viewBox="0 0 512 512" enable-background="new 0 0 512 512" xml:space="preserve">
<g>
	<path fill="#55C6DD" d="M261.137,89.093l144.29,110.341l19.901,15.219h-25.04H111.71H86.67l19.9-15.219L250.861,89.093l5.14-3.931
		l5.139,3.931H261.137z M375.249,197.672l-119.248-91.188l-119.25,91.188H375.249L375.249,197.672z"/>
	<polygon fill="#55C6DD" points="145.662,223.136 145.662,367.426 128.688,367.426 128.688,223.136 	"/>
	<polygon fill="#55C6DD" points="205.074,223.136 205.074,367.426 188.102,367.426 188.102,223.136 	"/>
	<polygon fill="#55C6DD" points="264.487,223.136 264.487,367.426 247.514,367.426 247.514,223.136 	"/>
	<polygon fill="#55C6DD" points="332.388,223.136 332.388,367.426 315.412,367.426 315.412,223.136 	"/>
	<polygon fill="#55C6DD" points="391.8,223.136 391.8,367.426 374.827,367.426 374.827,223.136 	"/>
	<polygon fill="#55C6DD" points="103.224,375.914 408.776,375.914 408.776,392.89 103.224,392.89 	"/>
	<polygon fill="#55C6DD" points="77.761,409.865 434.239,409.865 434.239,426.838 77.761,426.838 	"/>
</g>
</svg>
