<?xml version="1.0" encoding="utf-8"?>
<!-- Generator: Adobe Illustrator 16.0.3, SVG Export Plug-In . SVG Version: 6.00 Build 0)  -->
<!DOCTYPE svg PUBLIC "-//W3C//DTD SVG 1.1//EN" "http://www.w3.org/Graphics/SVG/1.1/DTD/svg11.dtd">
<svg version="1.1" id="Layer_1" xmlns="http://www.w3.org/2000/svg" xmlns:xlink="http://www.w3.org/1999/xlink" x="0px" y="0px"
	 width="512px" height="512px" viewBox="0 0 512 512" enable-background="new 0 0 512 512" xml:space="preserve">
<g>
	<path fill="#55C6DD" d="M366.372,244.473l-21.64,35.414l-7.241,11.848l-7.209-11.848l-21.569-35.446
		c-18.748,0.042-39.457,0.553-55.747,6.553c-16.071,5.921-28.32,17.772-30.419,41.411v7.125v16.051l-13.258-9.059l-25.803-17.635
		l0.009-0.014l-0.074-0.053c-8.763-6.119-15.58-7.285-20.245-5.635c-1.817,0.643-3.34,1.766-4.516,3.188
		c-1.276,1.543-2.157,3.398-2.602,5.377c-0.998,4.477,0.141,9.586,3.897,13.346c7.321,7.318,32.806,23.254,52.06,35.293
		c7.953,4.969,14.896,9.314,18.877,11.965l-0.013,0.02c1.462,0.836,3.121,1.219,4.826,1.219c2.239,0,4.512-0.648,6.55-1.811
		c2.112-1.205,3.951-2.918,5.234-4.994c1.186-1.914,1.899-4.195,1.899-6.725v-39.016v-8.484h8.48h32.967h8.451l-0.002,8.484
		l-0.039,84.959h80.228l-0.044-84.387l-0.002-8.484h8.454h29.267h8.481v8.484v74.834c0,6.396,3.327,10.426,7.585,12.133
		c1.832,0.736,3.818,1.105,5.808,1.105c1.983,0,3.972-0.371,5.807-1.107c4.279-1.717,7.624-5.75,7.624-12.131
		c0-10.727,0.454-21.98,0.89-32.717c0.364-9.021,0.717-17.645,0.717-26.66C454.061,274.332,443.543,245.587,366.372,244.473
		L366.372,244.473z M337.525,259.227l16.912-27.679l2.494-4.077h4.73c96.422,0,109.366,35.819,109.366,89.608
		c0,8.037-0.387,17.463-0.783,27.32c-0.402,9.939-0.823,20.355-0.823,32.055c0,14.42-8.029,23.721-18.294,27.84
		c-3.816,1.529-7.963,2.295-12.104,2.297c-4.145,0-8.289-0.764-12.104-2.295c-10.249-4.111-18.254-13.4-18.254-27.842v-66.352
		h-12.331l0.042,84.387l0.006,8.482h-8.455h-97.134h-8.454l0.003-8.482l0.041-84.959h-16.031v30.533
		c0,5.777-1.676,11.08-4.478,15.607c-2.816,4.549-6.769,8.262-11.267,10.824c-4.578,2.605-9.744,4.066-14.901,4.066
		c-4.773,0-9.568-1.24-13.961-3.957l-0.246-0.154l-0.018,0.021c-4.577-3.051-11.027-7.084-18.413-11.701
		c-20.018-12.516-46.509-29.08-55.107-37.678c-8.132-8.131-10.579-19.234-8.405-28.984c1.035-4.631,3.086-8.957,6.048-12.537
		c3.06-3.699,7.074-6.635,11.938-8.357c9.35-3.305,21.591-1.969,35.479,7.703l0.011-0.014l13.47,9.207
		c4.472-27.26,20.312-41.532,40.634-49.022c20.534-7.565,45.007-7.617,66.321-7.617h4.743l2.482,4.077L337.525,259.227
		L337.525,259.227z M183.486,288.887l1.338,0.914l-1.329-0.928L183.486,288.887L183.486,288.887z M221.499,366.449l-0.673-0.416
		l0.655,0.438L221.499,366.449z"/>
	<path fill="#55C6DD" d="M337.517,205.712c12.323,0,23.388-4.908,31.316-12.836c7.49-7.488,12.123-17.695,12.123-28.833
		c0-11.144-4.633-21.345-12.118-28.834c-7.93-7.929-18.998-12.832-31.321-12.832c-12.329,0-23.401,4.904-31.331,12.834
		c-7.491,7.489-12.123,17.689-12.123,28.832c0,11.138,4.635,21.339,12.123,28.831c7.934,7.93,19.002,12.836,31.331,12.836V205.712z
		 M377.104,206.132c-10.219,10.221-24.225,16.545-39.588,16.545c-15.366,0-29.379-6.324-39.604-16.549
		c-10.661-10.658-17.257-25.532-17.257-42.085c0-16.558,6.595-31.427,17.257-42.086c10.225-10.224,24.233-16.548,39.604-16.548
		c15.363,0,29.372,6.324,39.594,16.546c10.658,10.658,17.248,25.526,17.248,42.088C394.358,180.598,387.765,195.472,377.104,206.132
		L377.104,206.132z"/>
	<polygon fill="#55C6DD" points="48.039,192.034 150.164,272.275 143.094,286.656 40.972,206.416 	"/>
</g>
</svg>
