<?xml version="1.0" encoding="utf-8"?>
<!-- Generator: Adobe Illustrator 16.0.3, SVG Export Plug-In . SVG Version: 6.00 Build 0)  -->
<!DOCTYPE svg PUBLIC "-//W3C//DTD SVG 1.1//EN" "http://www.w3.org/Graphics/SVG/1.1/DTD/svg11.dtd">
<svg version="1.1" id="Layer_1" xmlns="http://www.w3.org/2000/svg" xmlns:xlink="http://www.w3.org/1999/xlink" x="0px" y="0px"
	 width="512px" height="512px" viewBox="0 0 512 512" enable-background="new 0 0 512 512" xml:space="preserve">
<g>
	<path fill="#55C6DD" d="M356.182,315.085h-33.936v-33.937c0-4.686-3.797-8.483-8.482-8.483s-8.484,3.798-8.484,8.483v33.937
		h-33.936c-4.686,0-8.484,3.799-8.484,8.483c0,4.686,3.799,8.482,8.484,8.482h33.936v33.937c0,4.685,3.799,8.483,8.484,8.483
		s8.482-3.799,8.482-8.483v-33.937h33.936c4.686,0,8.484-3.797,8.484-8.482C364.666,318.884,360.867,315.085,356.182,315.085z"/>
	<path fill="#55C6DD" d="M322.246,225.4v-59.346c0-0.097-0.012-0.187-0.018-0.281c-0.002-0.101-0.008-0.195-0.01-0.294
		c-0.027-0.357-0.068-0.706-0.135-1.045c0-0.012-0.004-0.024-0.004-0.042c-0.072-0.371-0.18-0.732-0.301-1.088
		c-0.021-0.071-0.051-0.138-0.076-0.203c-0.121-0.333-0.262-0.651-0.422-0.961c-0.012-0.025-0.021-0.055-0.039-0.08
		c-0.172-0.327-0.371-0.637-0.588-0.939c-0.053-0.067-0.102-0.137-0.156-0.207c-0.229-0.299-0.469-0.584-0.732-0.849
		c0-0.005-0.004-0.005-0.004-0.009L251.89,92.186c-0.003,0-0.003-0.004-0.003-0.004c-0.269-0.266-0.561-0.506-0.857-0.738
		c-0.066-0.049-0.135-0.099-0.205-0.148c-0.301-0.215-0.612-0.419-0.948-0.597c-0.016-0.009-0.037-0.016-0.059-0.028
		c-0.313-0.165-0.641-0.307-0.98-0.432c-0.063-0.021-0.124-0.049-0.19-0.07c-0.356-0.123-0.721-0.227-1.099-0.302
		c-0.007,0-0.016,0-0.024-0.005c-0.342-0.064-0.699-0.107-1.06-0.133c-0.096-0.002-0.191-0.008-0.286-0.011
		c-0.095,0-0.19-0.018-0.285-0.018H107.876c-4.685,0-8.482,3.804-8.482,8.484v281.696c0,4.686,3.798,8.484,8.482,8.484h131.723
		c18.094,20.779,44.731,33.935,74.383,33.935c54.381,0,98.623-44.242,98.623-98.624C412.605,272.076,372.775,229.612,322.246,225.4z
		 M254.376,118.668l38.903,38.902h-38.903V118.668z M116.362,371.397V106.668h121.045v59.387c0,4.687,3.8,8.484,8.486,8.484h59.386
		v50.901c-50.32,4.421-89.921,46.785-89.921,98.235c0,17.299,4.487,33.571,12.34,47.722H116.362z M313.982,405.332
		c-45.025,0-81.657-36.631-81.657-81.656c0-45.029,36.631-81.656,81.657-81.656c45.029,0,81.656,36.627,81.656,81.656
		C395.639,368.701,359.012,405.332,313.982,405.332z"/>
</g>
</svg>
