<?xml version="1.0" encoding="utf-8"?>
<!-- Generator: Adobe Illustrator 16.0.3, SVG Export Plug-In . SVG Version: 6.00 Build 0)  -->
<!DOCTYPE svg PUBLIC "-//W3C//DTD SVG 1.1//EN" "http://www.w3.org/Graphics/SVG/1.1/DTD/svg11.dtd">
<svg version="1.1" id="Layer_1" xmlns="http://www.w3.org/2000/svg" xmlns:xlink="http://www.w3.org/1999/xlink" x="0px" y="0px"
	 width="512px" height="512px" viewBox="0 0 512 512" enable-background="new 0 0 512 512" xml:space="preserve">
<g>
	<path fill="#55C6DD" d="M428.396,296.756l-37.959-21.918c0.867-6.234,1.303-12.547,1.303-18.84c0-6.287-0.436-12.602-1.303-18.837
		l37.959-21.917c4.057-2.342,5.446-7.53,3.107-11.59l-42.421-73.472c-1.123-1.95-2.977-3.371-5.149-3.956
		c-2.172-0.579-4.49-0.275-6.438,0.85l-37.971,21.922c-9.979-7.805-20.905-14.127-32.62-18.861V86.324
		c0-4.686-3.799-8.482-8.483-8.482h-84.838c-4.687,0-8.484,3.797-8.484,8.482v43.813c-11.713,4.735-22.646,11.057-32.622,18.861
		l-37.967-21.917c-4.059-2.346-9.248-0.956-11.592,3.102l-42.418,73.476c-1.124,1.947-1.431,4.264-0.846,6.436
		c0.579,2.173,2.002,4.029,3.951,5.15l37.961,21.917c-0.87,6.234-1.307,12.546-1.307,18.837c0,6.293,0.437,12.602,1.307,18.84
		l-37.961,21.914c-4.057,2.344-5.447,7.535-3.105,11.59l42.418,73.471c1.123,1.953,2.979,3.373,5.153,3.957
		c2.172,0.58,4.489,0.279,6.436-0.85l37.965-21.922c9.979,7.809,20.917,14.131,32.627,18.865v43.813
		c0,4.684,3.798,8.482,8.484,8.482h84.838c4.685,0,8.483-3.799,8.483-8.482v-43.813c11.709-4.734,22.644-11.057,32.62-18.865
		l37.97,21.922c1.947,1.129,4.265,1.43,6.437,0.85c2.176-0.584,4.026-2.004,5.151-3.951l42.42-73.477
		C433.842,304.287,432.452,299.096,428.396,296.756z M378.63,365.986l-35.698-20.611c-3.115-1.801-7.023-1.436-9.755,0.898
		c-11.158,9.551-23.804,16.861-37.584,21.732c-3.392,1.197-5.657,4.404-5.657,8v41.189h-67.87v-41.189c0-3.596-2.268-6.803-5.657-8
		c-13.782-4.871-26.424-12.182-37.582-21.732c-2.733-2.334-6.645-2.695-9.761-0.898l-35.692,20.611l-33.935-58.779l35.676-20.6
		c3.111-1.795,4.756-5.355,4.101-8.885c-1.317-7.143-1.985-14.451-1.985-21.722c0-7.276,0.668-14.583,1.987-21.721
		c0.653-3.529-0.991-7.093-4.101-8.89l-35.678-20.598l33.936-58.776l35.694,20.608c3.117,1.798,7.024,1.437,9.758-0.904
		c11.155-9.545,23.796-16.855,37.582-21.727c3.39-1.197,5.657-4.402,5.657-8V94.807h67.87v41.187c0,3.598,2.266,6.803,5.657,8
		c13.783,4.871,26.426,12.182,37.58,21.727c2.733,2.341,6.644,2.702,9.759,0.904l35.695-20.608l33.938,58.776l-35.68,20.598
		c-3.109,1.797-4.752,5.355-4.098,8.89c1.315,7.14,1.985,14.449,1.985,21.721c0,7.271-0.67,14.58-1.985,21.722
		c-0.654,3.531,0.99,7.09,4.098,8.885l35.68,20.6L378.63,365.986z"/>
	<path fill="#55C6DD" d="M255.999,183.888c-39.761,0-72.111,32.35-72.111,72.112c0,39.761,32.351,72.115,72.111,72.115
		c39.764,0,72.113-32.354,72.113-72.115C328.112,216.238,295.763,183.888,255.999,183.888z M255.999,311.146
		c-30.406,0-55.143-24.738-55.143-55.146c0-30.408,24.736-55.145,55.143-55.145c30.408,0,55.146,24.736,55.146,55.145
		C311.145,286.408,286.407,311.146,255.999,311.146z"/>
</g>
</svg>
