<?xml version="1.0" encoding="utf-8"?>
<!-- Generator: Adobe Illustrator 16.0.3, SVG Export Plug-In . SVG Version: 6.00 Build 0)  -->
<!DOCTYPE svg PUBLIC "-//W3C//DTD SVG 1.1//EN" "http://www.w3.org/Graphics/SVG/1.1/DTD/svg11.dtd">
<svg version="1.1" id="Layer_1" xmlns="http://www.w3.org/2000/svg" xmlns:xlink="http://www.w3.org/1999/xlink" x="0px" y="0px"
	 width="512px" height="512px" viewBox="0 0 512 512" enable-background="new 0 0 512 512" xml:space="preserve">
<g>
	<path fill="#55C6DD" d="M139.393,307.676v-49.182c0-13.092,5.062-25.037,13.221-33.736c8.289-8.846,19.768-14.338,32.427-14.338
		h140.44c12.661,0,24.138,5.492,32.428,14.338c8.156,8.699,13.22,20.648,13.22,33.736v50.295h-18.727v-50.295
		c0-8.197-3.102-15.606-8.1-20.938c-4.86-5.186-11.528-8.407-18.821-8.407H185.04c-7.293,0-13.958,3.222-18.822,8.407
		c-4.995,5.331-8.1,12.738-8.1,20.936v49.184H139.393L139.393,307.676z"/>
	<path fill="#55C6DD" d="M253.334,80.848c17.322,0,33.009,7.021,44.362,18.375c11.355,11.355,18.38,27.039,18.38,44.361
		c0,17.325-7.026,33.012-18.38,44.365s-27.04,18.377-44.362,18.377c-17.325,0-33.013-7.023-44.364-18.377
		c-11.354-11.354-18.379-27.04-18.379-44.365c0-17.322,7.024-33.006,18.379-44.361C220.321,87.869,236.009,80.848,253.334,80.848z
		 M284.458,112.465c-7.965-7.967-18.971-12.889-31.124-12.889c-12.156,0-23.161,4.922-31.123,12.889
		c-7.965,7.961-12.892,18.966-12.892,31.119c0,12.156,4.927,23.162,12.892,31.125c7.962,7.964,18.967,12.892,31.123,12.892
		c12.153,0,23.159-4.928,31.124-12.892c7.964-7.963,12.89-18.969,12.89-31.125C297.348,131.431,292.422,120.426,284.458,112.465z"/>
	<path fill="#55C6DD" d="M348.305,359.843v42.724v13.034l-12.361-4.183c-15.6-5.274-29.969-7.528-42.717-5.678
		c-12.112,1.765-22.973,7.379-32.279,17.864l-6.7,7.548l-7.013-7.259c-8.4-8.689-18.234-14.458-29.878-16.908
		c-12.086-2.541-26.351-1.604-43.22,3.229l-11.922,3.413v-12.412v-41.63h18.729v29.711c14.916-3.001,28.242-3.115,40.215-0.599
		c12.355,2.598,23.119,7.94,32.553,15.767c10.929-9.769,23.303-15.256,36.885-17.23c12.206-1.774,25.252-0.635,38.983,2.822v-30.214
		H348.305z"/>
	<path fill="#55C6DD" d="M329.579,302.789v-41.664c-12.145-0.468-23.9-0.246-34.456,2.376c-12.259,3.042-23.314,9.505-32.182,22.41
		l-6.84,9.955l-7.9-9.076c-10.764-12.366-21.799-19.798-33.829-23.597c-10.1-3.186-21.124-3.926-33.429-2.938v41.566h-18.729
		v-49.949v-8.176l8.158-1.075c18.321-2.422,34.553-2.036,49.635,2.726c12.384,3.908,23.783,10.658,34.648,21.086
		c10.485-11.467,22.718-17.775,36.004-21.075c15.557-3.86,32.071-3.409,48.795-2.448l8.85,0.51v8.815v50.554H329.579
		L329.579,302.789z"/>
	<path fill="#55C6DD" d="M346.801,291.425c9.434,0,17.815,4.833,23.739,12.645c5.373,7.087,8.696,16.695,8.696,27.149
		c0,10.453-3.323,20.063-8.696,27.15c-5.924,7.813-14.306,12.645-23.739,12.645c-9.439,0-17.818-4.832-23.743-12.645
		c-5.373-7.087-8.696-16.697-8.696-27.15c0-10.454,3.323-20.063,8.696-27.149C328.982,296.258,337.363,291.425,346.801,291.425z
		 M355.69,315.334c-2.429-3.202-5.583-5.182-8.89-5.182c-3.311,0-6.468,1.979-8.896,5.182c-2.977,3.927-4.818,9.53-4.818,15.885
		c0,6.352,1.842,11.959,4.818,15.887c2.428,3.201,5.585,5.179,8.896,5.179c3.307,0,6.465-1.978,8.89-5.179
		c2.977-3.928,4.818-9.535,4.818-15.887C360.509,324.864,358.667,319.261,355.69,315.334z"/>
	<path fill="#55C6DD" d="M165.201,291.425c9.438,0,17.819,4.833,23.743,12.645c5.373,7.087,8.697,16.695,8.697,27.149
		c0,10.453-3.324,20.063-8.697,27.15c-5.924,7.813-14.306,12.645-23.743,12.645c-9.434,0-17.814-4.832-23.739-12.645
		c-5.373-7.087-8.698-16.697-8.698-27.15c0-10.454,3.325-20.063,8.698-27.149C147.387,296.258,155.768,291.425,165.201,291.425
		L165.201,291.425z M174.094,315.334c-2.424-3.202-5.582-5.182-8.893-5.182c-3.305,0-6.463,1.979-8.89,5.182
		c-2.979,3.927-4.82,9.53-4.82,15.885c0,6.352,1.842,11.959,4.82,15.887c2.427,3.201,5.585,5.179,8.89,5.179
		c3.311,0,6.469-1.978,8.894-5.179c2.977-3.928,4.82-9.535,4.82-15.887C178.915,324.864,177.071,319.261,174.094,315.334
		L174.094,315.334z"/>
</g>
</svg>
