<?xml version="1.0" encoding="utf-8"?>
<!-- Generator: Adobe Illustrator 16.0.3, SVG Export Plug-In . SVG Version: 6.00 Build 0)  -->
<!DOCTYPE svg PUBLIC "-//W3C//DTD SVG 1.1//EN" "http://www.w3.org/Graphics/SVG/1.1/DTD/svg11.dtd">
<svg version="1.1" id="Layer_1" xmlns="http://www.w3.org/2000/svg" xmlns:xlink="http://www.w3.org/1999/xlink" x="0px" y="0px"
	 width="512px" height="512px" viewBox="0 0 512 512" enable-background="new 0 0 512 512" xml:space="preserve">
<g>
	<path fill="#55C6DD" d="M376.881,162.396c-0.006-0.101-0.01-0.195-0.016-0.295c-0.025-0.355-0.064-0.702-0.133-1.042
		c0-0.015-0.002-0.028-0.004-0.044c-0.072-0.373-0.18-0.732-0.301-1.087c-0.021-0.07-0.049-0.138-0.076-0.206
		c-0.121-0.329-0.26-0.649-0.42-0.959c-0.014-0.027-0.023-0.054-0.037-0.078c-0.176-0.329-0.375-0.641-0.592-0.94
		c-0.051-0.068-0.102-0.14-0.154-0.208c-0.23-0.297-0.469-0.584-0.734-0.851c0-0.001-0.004-0.003-0.004-0.007l-59.385-59.386
		c-0.006-0.003-0.006-0.003-0.006-0.003c-0.27-0.268-0.557-0.51-0.857-0.738c-0.066-0.049-0.133-0.102-0.203-0.149
		c-0.301-0.219-0.615-0.419-0.943-0.597c-0.023-0.012-0.047-0.021-0.066-0.03c-0.313-0.166-0.641-0.305-0.975-0.43
		c-0.064-0.021-0.129-0.05-0.193-0.072c-0.355-0.122-0.723-0.226-1.098-0.302c-0.01-0.001-0.02-0.001-0.029-0.001
		c-0.344-0.069-0.695-0.109-1.055-0.134c-0.098-0.006-0.193-0.011-0.291-0.015c-0.096,0-0.188-0.016-0.285-0.016H186.009
		c-4.687,0-8.485,3.802-8.485,8.485v262.999c0,4.684,3.799,8.482,8.485,8.482H368.41c4.686,0,8.484-3.799,8.484-8.482V162.679
		C376.895,162.583,376.883,162.491,376.881,162.396z M317.508,123.775l30.42,30.42h-30.42V123.775z M194.493,357.805v-246.03
		h106.046v50.904c0,4.685,3.799,8.483,8.484,8.483h50.904v186.642H194.493z"/>
	<path fill="#55C6DD" d="M334.475,196.617H219.944c-4.686,0-8.483,3.797-8.483,8.483c0,4.685,3.798,8.483,8.483,8.483h114.531
		c4.686,0,8.484-3.799,8.484-8.483C342.959,200.414,339.16,196.617,334.475,196.617z"/>
	<path fill="#55C6DD" d="M334.475,230.551H219.944c-4.686,0-8.483,3.799-8.483,8.483c0,4.686,3.798,8.482,8.483,8.482h114.531
		c4.686,0,8.484-3.797,8.484-8.482C342.959,234.35,339.16,230.551,334.475,230.551z"/>
	<path fill="#55C6DD" d="M334.475,264.486H219.944c-4.686,0-8.483,3.799-8.483,8.482c0,4.686,3.798,8.484,8.483,8.484h114.531
		c4.686,0,8.484-3.799,8.484-8.484C342.959,268.285,339.16,264.486,334.475,264.486z"/>
	<path fill="#55C6DD" d="M272.156,298.42h-52.212c-4.686,0-8.483,3.801-8.483,8.484c0,4.686,3.798,8.486,8.483,8.486h52.212
		c4.684,0,8.482-3.801,8.482-8.486C280.639,302.221,276.84,298.42,272.156,298.42z"/>
	<path fill="#55C6DD" d="M334.475,400.225H152.074V137.228c0-4.685-3.799-8.484-8.484-8.484s-8.484,3.8-8.484,8.484v271.479
		c0,4.688,3.799,8.486,8.484,8.486h190.885c4.686,0,8.484-3.799,8.484-8.486C342.959,404.023,339.16,400.225,334.475,400.225z"/>
</g>
</svg>
