<?xml version="1.0" encoding="utf-8"?>
<!-- Generator: Adobe Illustrator 16.0.3, SVG Export Plug-In . SVG Version: 6.00 Build 0)  -->
<!DOCTYPE svg PUBLIC "-//W3C//DTD SVG 1.1//EN" "http://www.w3.org/Graphics/SVG/1.1/DTD/svg11.dtd">
<svg version="1.1" id="Layer_1" xmlns="http://www.w3.org/2000/svg" xmlns:xlink="http://www.w3.org/1999/xlink" x="0px" y="0px"
	 width="512px" height="512px" viewBox="0 0 512 512" enable-background="new 0 0 512 512" xml:space="preserve">
<g id="Mosque">
	<path fill="#88C540" d="M448.969,154.394c-3.777,0-1.008,4.281-14.266-28.859c-2.02-5.051-5.934-9.115-10.904-11.327V95.665
		c0-4.629-3.758-8.391-8.391-8.391s-8.391,3.762-8.391,8.391v18.542c-4.971,2.212-8.885,6.276-10.908,11.327
		c-13.254,33.141-10.484,28.859-14.262,28.859c-4.631,0-8.389,3.758-8.389,8.393v33.56c0,4.632,3.758,8.386,8.389,8.386v67.122
		H365.07v-25.169c0-4.635-3.758-8.389-8.393-8.389c-9.814,0,0,2.014,0-19.549c0-51.35-70.809-79.788-92.285-87.174v-11.914
		c21.896-5.704,31.291-31.796,15.604-32.465c-12.969-0.592-23.359-10.949-23.994-23.914c-0.671-17.366-33.561-3.691-33.561,23.994
		c0.051,15.264,10.392,28.57,25.171,32.385v11.914c-21.478,7.386-92.291,35.824-92.291,87.174c0,21.728,9.9,19.549,0,19.549
		c-4.632,0-8.391,3.754-8.391,8.389v25.169h-16.779v-67.122c4.633,0,8.388-3.754,8.388-8.386v-33.56
		c0-4.635-3.755-8.393-8.388-8.393c-3.774,0-1.007,4.281-14.263-28.859c-2.021-5.051-5.936-9.115-10.906-11.327V95.665
		c0-4.629-3.755-8.391-8.391-8.391c-4.635,0-8.391,3.762-8.391,8.391v18.542c-4.973,2.212-8.884,6.276-10.907,11.327
		c-13.255,33.141-10.485,28.859-14.261,28.859c-4.635,0-8.392,3.758-8.392,8.393v33.56c0,4.632,3.757,8.386,8.392,8.386v243.31
		c0,4.632,3.754,8.39,8.388,8.39h369.155c4.637,0,8.393-3.758,8.393-8.39v-243.31c4.631,0,8.389-3.754,8.389-8.386v-33.56
		C457.357,158.151,453.6,154.394,448.969,154.394z M390.24,171.177h50.336v16.779H390.24V171.177z M411.717,131.742
		c1-2.038,3.465-2.878,5.5-1.885c0.82,0.401,1.482,1.065,1.883,1.885l9.061,22.651h-25.17L411.717,131.742z M242.243,77.712
		c4.211,10.669,12.655,19.109,23.324,23.324c-7.648,5.233-18.091,3.275-23.324-4.373C238.333,90.95,238.333,83.423,242.243,77.712z
		 M256.002,146.425c13.927,4.613,83.898,29.953,83.898,72.322c0.229,7.432-2.842,14.59-8.391,19.549H180.493
		C156.581,216.56,181.163,171.177,256.002,146.425z M163.713,255.072h184.576v16.781H163.713V255.072z M381.848,288.635v16.778
		H130.152v-16.778H381.848z M71.421,171.177h50.339v16.779H71.421V171.177z M92.901,131.742c0.999-2.038,3.463-2.878,5.502-1.885
		c0.817,0.401,1.479,1.065,1.883,1.885l9.063,22.651h-25.17L92.901,131.742z M79.811,204.731h33.56v234.918h-33.56V204.731z
		 M130.152,322.192h251.696v117.457h-83.898V390.32c0-34.903-33.557-53.694-43.963-51.097c-23.458,5.853-39.92,26.917-39.935,51.097
		v49.329h-83.899V322.192z M230.833,439.649V390.32c-0.189-15.82,10.052-29.888,25.17-34.568
		c14.998,4.642,25.208,18.533,25.169,34.229v49.669H230.833z M432.188,439.649h-33.559V204.731h33.559V439.649z"/>
	<path fill="#88C540" d="M175.875,348.286c-8.389-4.031-28.944,11.155-28.944,34.651v23.153c0,4.635,3.759,8.388,8.391,8.388h33.562
		c4.634,0,8.389-3.753,8.389-8.388C197.272,383.604,200.626,360.619,175.875,348.286z M180.493,397.702h-16.779
		c0-13.256-1.93-24.081,8.389-32.05C182.338,373.621,180.493,383.939,180.493,397.702z"/>
	<path fill="#88C540" d="M323.119,414.479h33.559c4.635,0,8.393-3.753,8.393-8.388c0-22.486,3.355-45.472-21.396-57.805
		c-8.389-4.031-28.945,11.155-28.945,34.651v23.153C314.729,410.726,318.484,414.479,323.119,414.479z M339.9,365.652
		c10.234,8.388,8.389,18.287,8.389,32.05H331.51C331.51,384.446,329.58,373.621,339.9,365.652z"/>
</g>
</svg>
