<?xml version="1.0" encoding="utf-8"?>
<!-- Generator: Adobe Illustrator 16.0.3, SVG Export Plug-In . SVG Version: 6.00 Build 0)  -->
<!DOCTYPE svg PUBLIC "-//W3C//DTD SVG 1.1//EN" "http://www.w3.org/Graphics/SVG/1.1/DTD/svg11.dtd">
<svg version="1.1" id="Layer_1" xmlns="http://www.w3.org/2000/svg" xmlns:xlink="http://www.w3.org/1999/xlink" x="0px" y="0px"
	 width="512px" height="512px" viewBox="0 0 512 512" enable-background="new 0 0 512 512" xml:space="preserve">
<g id="Sujud_pose">
	<path fill="#88C540" d="M480.974,304.303c-11.879-20.733-35.641-31.6-59.091-27.029c-8.058,2.469-16.487,3.488-24.898,3.003
		c-27.259-44.059-61.03-83.745-100.167-117.696c-34.292-31.098-72.558-42.339-118.477-42.339c-48.147,0-87.186,39.038-87.186,87.191
		c0,37.004,14.339,57.251,32.261,89.604c-26.351-2.903-14.336-0.674-53.765-10.459c-20.189-4.818-40.465,7.644-45.283,27.838
		c-0.724,3.032-1.068,6.143-1.023,9.263v45.529c0,12.309,9.979,22.283,22.281,22.283c14.922,0,19.376-11.145,30.613-27.9
		l119.056,25.572c10.364,2.025,20.935,2.807,31.485,2.328c19.249-0.014,36.663-11.422,44.368-29.064
		c33.032,33.037,25.282,29.064,79.24,29.064c8.615,0.02,16.422-5.084,19.861-12.982l2.13,0.579
		c18.793,3.777,20.438,8.525,33.419,11.143C460.34,401.175,507.711,351.382,480.974,304.303z M48.146,370.855
		c-1.117,1.293-3.077,1.441-4.373,0.324c-0.583-0.507-0.958-1.206-1.051-1.973v-45.529c-0.297-10.108,7.658-18.542,17.764-18.836
		c1.517-0.046,3.034,0.1,4.516,0.43l24.799,6.297l-5.716,33.906C64.615,341.309,69.845,338.209,48.146,370.855z M226.78,372.111
		c-24.51,0-9.688,1.844-123.709-22.568l5.814-34.586l78.079,8.624c5.351,0.589,10.164-3.272,10.752-8.624
		c0.588-5.348-3.271-10.161-8.621-10.753l-42.526-4.744c-0.873-2.519,3.584,5.713-23.153-42.526
		c-16.953-30.322-19.375-70.815,6.878-97.65c17.438-17.34,34.779-19.858,56.379-19.858c45.239,0,75.368,17.824,104.622,43.979
		c33.683,30.351,63.021,65.199,87.187,103.559c-8.529,9.08-15.53,19.484-20.729,30.807l-39.718-8.719l-10.463-21.023l4.262-2.808
		c4.468-2.971,5.683-8.997,2.712-13.464c-2.969-4.469-8.998-5.685-13.465-2.714l-11.333,7.652c-4.07,2.712-5.483,8.026-3.295,12.401
		l15.694,31.482l-24.993,18.602c-51.537-68.783-52.988-57.06,3.68-97.553c4.363-3.103,5.382-9.153,2.28-13.512
		c-3.104-4.363-9.157-5.381-13.517-2.279l-27.898,20.344l-25.962-43.301c-3.147-4.329-9.206-5.285-13.532-2.139
		c-3.714,2.701-5.022,7.64-3.131,11.822c40.396,67.813,25.283,34.682,20.829,63.357c-3.103,20.243,6.005,27.319,35.938,67.812
		C255.472,359.515,242.568,372.118,226.78,372.111z M328.688,331.523l22.185,4.941c-0.679,3.003-1.163,5.907-1.55,8.621
		C327.816,334.331,331.594,337.24,328.688,331.523z M350.389,372.111c-47.273,0-38.749,3.487-60.448-18.307l20.537-15.404
		c4.747,9.688,5.231,11.532,8.814,13.271c34.486,17.245,33.423,16.18,33.423,18.115C352.715,371.07,351.672,372.111,350.389,372.111
		L350.389,372.111z M409.675,371.241c-9.688-1.936-12.98-7.07-33.521-11.139c-4.657-0.854-8.018-4.952-7.942-9.689
		c2.345-18.895,10.898-36.479,24.316-49.983h8.621l31.482,70.812C425.059,372.782,417.25,372.782,409.675,371.241L409.675,371.241z
		 M451.427,363.301c-0.97,0.579,1.744,5.227-29.933-65.875C468.09,288.221,485.138,343.052,451.427,363.301z"/>
</g>
</svg>
