<?xml version="1.0" encoding="utf-8"?>
<!-- Generator: Adobe Illustrator 16.0.3, SVG Export Plug-In . SVG Version: 6.00 Build 0)  -->
<!DOCTYPE svg PUBLIC "-//W3C//DTD SVG 1.1//EN" "http://www.w3.org/Graphics/SVG/1.1/DTD/svg11.dtd">
<svg version="1.1" id="Layer_1" xmlns="http://www.w3.org/2000/svg" xmlns:xlink="http://www.w3.org/1999/xlink" x="0px" y="0px"
	 width="512px" height="512px" viewBox="0 0 512 512" enable-background="new 0 0 512 512" xml:space="preserve">
<g id="Lantern_1">
	<path fill="#88C540" d="M375.904,350.5h-8.564V196.337h8.564c4.732,0,8.564-3.834,8.564-8.565c0-4.73-3.832-8.563-8.564-8.563
		h-17.131c-3.679,0,0,0.855,0-8.566c0-14.188-11.503-25.697-25.692-25.697h-9.167c-2.726-21.693-15.642-40.785-34.769-51.387
		c4.783-18.301-6.175-37.021-24.482-41.807c-18.305-4.783-37.025,6.177-41.81,24.482c-1.484,5.68-1.484,11.645,0,17.324
		c-19.128,10.602-32.047,29.693-34.77,51.387h-9.164c-14.195,0-25.698,11.509-25.698,25.697c0,9.336,3.685,8.566,0,8.566h-17.128
		c-4.73,0-8.563,3.832-8.563,8.563c0,4.731,3.832,8.565,8.563,8.565h8.565V350.5h-8.565c-4.73,0-8.563,3.832-8.563,8.566
		c0,4.73,3.832,8.563,8.563,8.563h18.672c-4.733,13.381,2.281,28.061,15.658,32.787c2.729,0.969,5.601,1.463,8.496,1.477h9.164
		c4.992,37.506,39.448,63.863,76.959,58.869c30.664-4.086,54.789-28.209,58.871-58.869h9.167
		c14.189-0.046,25.662-11.579,25.622-25.771c-0.009-2.893-0.504-5.763-1.473-8.492h18.674c4.732,0,8.564-3.832,8.564-8.563
		C384.469,354.332,380.637,350.5,375.904,350.5z M238.869,84.996c0-9.461,7.667-17.13,17.131-17.13
		c9.459-0.074,17.188,7.536,17.264,16.994c0.004,0.761-0.042,1.523-0.138,2.277c-5.596-1.434-11.349-2.153-17.126-2.142
		C239.296,84.996,238.869,89.711,238.869,84.996z M256,102.126c25.088-0.018,46.52,18.085,50.7,42.819H205.296
		C209.478,120.211,230.911,102.108,256,102.126z M178.92,162.075h154.161c4.73,0,8.563,3.836,8.563,8.567
		c0,4.73-3.833,8.566-8.563,8.566H178.92c-4.732,0-8.568-3.836-8.568-8.566C170.352,165.911,174.188,162.075,178.92,162.075z
		 M161.787,196.337h188.424V350.5H161.787V196.337z M256,444.713c-25.089,0.011-46.522-18.092-50.704-42.82H306.7
		C302.52,426.621,281.088,444.724,256,444.713z M333.081,384.757H178.92c-4.732,0-8.568-3.832-8.568-8.561
		c0-4.731,3.836-8.567,8.568-8.567h154.161c4.73,0,8.563,3.836,8.563,8.567C341.645,380.925,337.812,384.757,333.081,384.757z"/>
	<path fill="#88C540" d="M187.481,333.372h51.388c4.729,0,8.565-3.832,8.565-8.567V257.66
		c-0.006-19.848-12.698-37.466-31.521-43.767c-9.59-3.169-36.994,14.561-36.994,43.767v67.145
		C178.92,329.54,182.752,333.372,187.481,333.372z M196.044,257.66c0.007-11.426,6.714-21.781,17.133-26.468
		c10.418,4.687,17.12,15.042,17.129,26.468v58.582h-34.262V257.66z"/>
	<path fill="#88C540" d="M273.126,333.372h51.391c4.729,0,8.564-3.832,8.564-8.567V257.66
		c-0.007-19.848-12.696-37.466-31.521-43.767c-9.59-3.169-36.998,14.561-36.998,43.767v67.145
		C264.563,329.54,268.4,333.372,273.126,333.372z M281.69,257.66c0.007-11.426,6.714-21.781,17.132-26.468
		c10.419,4.687,17.125,15.042,17.129,26.468v58.582H281.69V257.66z"/>
</g>
</svg>
