<?xml version="1.0" encoding="utf-8"?>
<!-- Generator: Adobe Illustrator 16.0.3, SVG Export Plug-In . SVG Version: 6.00 Build 0)  -->
<!DOCTYPE svg PUBLIC "-//W3C//DTD SVG 1.1//EN" "http://www.w3.org/Graphics/SVG/1.1/DTD/svg11.dtd">
<svg version="1.1" id="Layer_1" xmlns="http://www.w3.org/2000/svg" xmlns:xlink="http://www.w3.org/1999/xlink" x="0px" y="0px"
	 width="512px" height="512px" viewBox="0 0 512 512" enable-background="new 0 0 512 512" xml:space="preserve">
<path fill="#88C540" d="M414.072,133.97c-4.275-3.443-10.53-2.771-13.975,1.5l-42.505,52.722v-76.297
	c0-5.485-4.451-9.938-9.939-9.938h-32.12v-9.938c0-5.484-4.447-9.936-9.938-9.936c-5.487,0-9.938,4.451-9.938,9.936v9.938h-19.876
	v-9.938c0-5.484-4.45-9.936-9.938-9.936c-5.49,0-9.938,4.451-9.938,9.936v9.938h-19.876v-9.938c0-5.484-4.451-9.936-9.939-9.936
	c-5.485,0-9.937,4.451-9.937,9.936v9.938h-19.877v-9.938c0-5.484-4.447-9.936-9.938-9.936c-5.488,0-9.938,4.451-9.938,9.936v9.938
	h-19.877v-9.938c0-5.484-4.451-9.936-9.938-9.936c-5.489,0-9.938,4.451-9.938,9.936v9.938h-32.479c-5.487,0-9.938,4.453-9.938,9.938
	v308.083c0,5.49,4.451,9.939,9.938,9.939h243.484c5.488,0,9.939-4.449,9.939-9.939V219.861l57.976-71.914
	C419.012,143.677,418.342,137.416,414.072,133.97z M136.648,121.832v9.938c0,5.488,4.448,9.938,9.938,9.938
	c5.487,0,9.938-4.449,9.938-9.938v-9.938h19.877v9.938c0,5.488,4.449,9.938,9.938,9.938c5.49,0,9.938-4.449,9.938-9.938v-9.938
	h19.877v9.938c0,5.488,4.451,9.938,9.937,9.938c5.488,0,9.939-4.449,9.939-9.938v-9.938h19.876v9.938
	c0,5.488,4.448,9.938,9.938,9.938c5.488,0,9.938-4.449,9.938-9.938v-9.938h19.876v9.938c0,5.488,4.45,9.938,9.938,9.938
	c5.49,0,9.938-4.449,9.938-9.938v-9.938h22.184v34.656h-223.61v-34.656H136.648z M337.717,410.04h-223.61V176.368h223.61v36.479
	L232.598,343.224l-74.473-63.715c-4.167-3.573-10.441-3.084-14.014,1.083c-3.567,4.176-3.076,10.448,1.091,14.015l82.253,70.371
	c1.804,1.552,4.102,2.389,6.459,2.389c0.307,0,0.611-0.013,0.917-0.047c2.674-0.244,5.135-1.562,6.818-3.653l96.067-119.153V410.04z
	"/>
</svg>
