<?xml version="1.0" encoding="utf-8"?>
<!-- Generator: Adobe Illustrator 16.0.3, SVG Export Plug-In . SVG Version: 6.00 Build 0)  -->
<!DOCTYPE svg PUBLIC "-//W3C//DTD SVG 1.1//EN" "http://www.w3.org/Graphics/SVG/1.1/DTD/svg11.dtd">
<svg version="1.1" id="Layer_1" xmlns="http://www.w3.org/2000/svg" xmlns:xlink="http://www.w3.org/1999/xlink" x="0px" y="0px"
	 width="512px" height="512px" viewBox="0 0 512 512" enable-background="new 0 0 512 512" xml:space="preserve">
<g>
	<path fill="#88C540" d="M135.814,288.822h57.267c4.686,0,8.484-3.797,8.484-8.483v-57.265c0-4.687-3.799-8.483-8.484-8.483h-57.267
		c-4.686,0-8.484,3.797-8.484,8.483v57.265C127.33,285.025,131.129,288.822,135.814,288.822z M144.299,231.558h40.299v40.299
		h-40.299V231.558z"/>
	<path fill="#88C540" d="M227.017,288.822h57.265c4.685,0,8.483-3.797,8.483-8.483v-57.265c0-4.687-3.799-8.483-8.483-8.483h-57.265
		c-4.687,0-8.484,3.797-8.484,8.483v57.265C218.532,285.025,222.33,288.822,227.017,288.822z M235.499,231.558h40.3v40.299h-40.3
		V231.558z"/>
	<path fill="#88C540" d="M318.216,288.822h57.266c4.686,0,8.484-3.797,8.484-8.483v-57.265c0-4.687-3.799-8.483-8.484-8.483h-57.266
		c-4.684,0-8.483,3.797-8.483,8.483v57.265C309.732,285.025,313.532,288.822,318.216,288.822z M326.7,231.558h40.298v40.299H326.7
		V231.558z"/>
	<path fill="#88C540" d="M135.814,380.025h57.267c4.686,0,8.484-3.801,8.484-8.485v-57.265c0-4.685-3.799-8.483-8.484-8.483h-57.267
		c-4.686,0-8.484,3.799-8.484,8.483v57.265C127.33,376.225,131.129,380.025,135.814,380.025z M144.299,322.758h40.299v40.298
		h-40.299V322.758z"/>
	<path fill="#88C540" d="M227.017,380.025h57.265c4.685,0,8.483-3.801,8.483-8.485v-57.265c0-4.685-3.799-8.483-8.483-8.483h-57.265
		c-4.687,0-8.484,3.799-8.484,8.483v57.265C218.532,376.225,222.33,380.025,227.017,380.025z M235.499,322.758h40.3v40.298h-40.3
		V322.758z"/>
	<path fill="#88C540" d="M318.216,380.025h57.266c4.686,0,8.484-3.801,8.484-8.485v-57.265c0-4.685-3.799-8.483-8.484-8.483h-57.266
		c-4.684,0-8.483,3.799-8.483,8.483v57.265C309.732,376.225,313.532,380.025,318.216,380.025z M326.7,322.758h40.298v40.298H326.7
		V322.758z"/>
	<path fill="#88C540" d="M385.378,110.005h-34.227V96.579c0-4.685-3.799-8.483-8.483-8.483c-4.686,0-8.484,3.799-8.484,8.483v13.426
		H176.704V96.579c0-4.685-3.801-8.483-8.486-8.483c-4.685,0-8.483,3.799-8.483,8.483v13.426h-33.112
		c-22.22,0-40.297,18.078-40.297,40.298v233.305c0,22.221,18.077,40.297,40.297,40.297h258.756
		c22.222,0,40.297-18.076,40.297-40.297V150.303C425.675,128.083,407.6,110.005,385.378,110.005z M408.708,383.607
		c0,12.862-10.468,23.331-23.33,23.331H126.622c-12.864,0-23.329-10.469-23.329-23.331V190.962h305.415V383.607z M408.708,173.992
		H103.293v-23.689c0-12.866,10.465-23.329,23.329-23.329h33.112v20.936c0,4.685,3.799,8.483,8.483,8.483
		c4.686,0,8.486-3.799,8.486-8.483v-20.936h157.479v20.936c0,4.685,3.799,8.483,8.484,8.483c4.685,0,8.483-3.799,8.483-8.483
		v-20.936h34.227c12.862,0,23.33,10.463,23.33,23.329V173.992z"/>
</g>
</svg>
