<?xml version="1.0" encoding="utf-8"?>
<!-- Generator: Adobe Illustrator 16.0.3, SVG Export Plug-In . SVG Version: 6.00 Build 0)  -->
<!DOCTYPE svg PUBLIC "-//W3C//DTD SVG 1.1//EN" "http://www.w3.org/Graphics/SVG/1.1/DTD/svg11.dtd">
<svg version="1.1" id="Layer_1" xmlns="http://www.w3.org/2000/svg" xmlns:xlink="http://www.w3.org/1999/xlink" x="0px" y="0px"
	 width="512px" height="512px" viewBox="0 0 512 512" enable-background="new 0 0 512 512" xml:space="preserve">
<g id="Quran">
	<path fill="#88C540" d="M394.463,60.523H150.116c-22.489,0-40.724,18.233-40.724,40.729v309.504
		c0,22.484,18.234,40.721,40.724,40.721h244.347c4.498,0,8.145-3.646,8.145-8.145V68.67
		C402.607,64.172,398.961,60.523,394.463,60.523z M150.116,76.814h236.201v293.213c-256.969,0-245.241-3.335-260.637,8.148V101.252
		C125.681,87.754,136.621,76.814,150.116,76.814z M313.016,386.319h32.576v13.114c-19.79-6.598-12.542-6.681-32.576,0V386.319z
		 M386.317,435.193H150.116c-13.495,0-24.436-10.945-24.436-24.438c0-13.5,10.94-24.437,24.436-24.437h146.607
		c0,25.411-1.141,27.771,3.421,31.03c4.559,3.262,6.354,1.469,29.158-6.187c23.62,8.144,22.643,8.144,24.437,8.144
		c4.497,0,8.144-3.646,8.144-8.144v-24.844h24.435V435.193z"/>
	<path fill="#88C540" d="M158.261,321.158c8.995,0,16.292,7.295,16.292,16.293c0,4.5,3.645,8.14,8.143,8.14h146.607
		c4.499,0,8.148-3.64,8.148-8.14c0-8.998,7.289-16.293,16.288-16.293c4.497,0,8.144-3.646,8.144-8.144V133.828
		c0-4.5-3.646-8.146-8.144-8.146c-8.999,0-16.288-7.294-16.288-16.288c0-4.5-3.649-8.143-8.148-8.143H182.695
		c-4.498,0-8.143,3.643-8.143,8.143c0,8.994-7.297,16.288-16.292,16.288c-4.498,0-8.145,3.646-8.145,8.146v179.187
		C150.116,317.512,153.763,321.158,158.261,321.158z M166.404,140.916c11.461-2.971,20.414-11.919,23.38-23.377h132.435
		c2.966,11.458,11.913,20.406,23.373,23.377v165.01c-11.46,2.969-20.407,11.92-23.373,23.381H189.784
		c-2.966-11.461-11.919-20.412-23.38-23.381V140.916z"/>
	<path fill="#88C540" d="M301.771,247.855c1.263-2.633,1.011-5.74-0.649-8.143c-3.175-4.647-7.655-3.342-11.078-3.342
		c-22.489,0.091-40.796-18.066-40.889-40.561c-0.022-6.205,1.369-12.336,4.075-17.915c2.004-4.031,0.363-8.92-3.663-10.925
		c-1.387-0.689-2.94-0.968-4.481-0.808c-29.534,2.585-52.159,27.369-52.047,57.013C193.204,283.694,275.466,302.67,301.771,247.855z
		 M233.766,185.952c-5.448,30.804,14.942,60.243,45.689,65.978c-15.654,16.146-41.437,16.549-57.583,0.895
		c-7.954-7.71-12.424-18.322-12.379-29.403C209.408,207.216,218.938,192.502,233.766,185.952z"/>
	<path fill="#88C540" d="M276.85,201.267c-1.954,6.11-4.479,11.405,0.978,15.31c5.456,3.911,9.529,0,14.824-3.822l5.296,3.822
		c3.564,2.748,8.677,2.085,11.418-1.481c1.75-2.271,2.178-5.294,1.121-7.966l-2.033-6.185l5.293-3.832
		c3.468-2.863,3.959-7.995,1.095-11.463c-1.462-1.773-3.604-2.846-5.899-2.95h-6.517l-2.034-6.191
		c-1.404-4.275-6.009-6.6-10.283-5.195c-2.459,0.809-4.387,2.736-5.195,5.195l-2.035,6.191h-6.515
		c-4.498-0.02-8.156,3.617-8.174,8.115c-0.01,2.623,1.244,5.086,3.368,6.625L276.85,201.267z"/>
</g>
</svg>
