<?xml version="1.0" encoding="utf-8"?>
<!-- Generator: Adobe Illustrator 16.0.3, SVG Export Plug-In . SVG Version: 6.00 Build 0)  -->
<!DOCTYPE svg PUBLIC "-//W3C//DTD SVG 1.1//EN" "http://www.w3.org/Graphics/SVG/1.1/DTD/svg11.dtd">
<svg version="1.1" id="Layer_1" xmlns="http://www.w3.org/2000/svg" xmlns:xlink="http://www.w3.org/1999/xlink" x="0px" y="0px"
	 width="512px" height="512px" viewBox="0 0 512 512" enable-background="new 0 0 512 512" xml:space="preserve">
<g id="Quran_1_">
	<path fill="#88C540" d="M394.466,60.52H150.117c-22.492,0-40.728,18.23-40.728,40.723v309.51c0,22.492,18.235,40.729,40.728,40.729
		h244.349c4.498,0,8.145-3.65,8.145-8.152V68.666C402.61,64.164,398.964,60.52,394.466,60.52z M150.117,76.807h236.205v293.221
		c-256.977,0-245.248-3.339-260.642,8.148V101.242C125.681,87.747,136.622,76.807,150.117,76.807z M313.018,386.315h32.58v13.12
		c-19.794-6.604-12.544-6.684-32.58,0V386.315z M386.322,435.189H150.117c-13.495,0-24.437-10.94-24.437-24.438
		c0-13.496,10.941-24.437,24.437-24.437h146.606c0,25.414-1.138,27.776,3.424,31.036c4.56,3.26,6.351,1.465,29.156-6.192
		c23.623,8.146,22.644,8.146,24.438,8.146c4.498,0,8.144-3.649,8.144-8.146v-24.844h24.437V435.189z"/>
	<path fill="#88C540" d="M158.262,321.159c8.998,0,16.287,7.29,16.287,16.288c0,4.502,3.649,8.143,8.147,8.143h146.607
		c4.501,0,8.146-3.641,8.146-8.143c0-8.998,7.296-16.288,16.292-16.288c4.498,0,8.144-3.646,8.144-8.148V133.82
		c0-4.496-3.646-8.145-8.144-8.145c-8.996,0-16.292-7.291-16.292-16.294c0-4.493-3.646-8.14-8.146-8.14H182.696
		c-4.498,0-8.147,3.646-8.147,8.14c0,9.003-7.289,16.294-16.287,16.294c-4.499,0-8.145,3.648-8.145,8.145v179.19
		C150.117,317.514,153.763,321.159,158.262,321.159z M166.405,140.912c11.461-2.971,20.408-11.919,23.376-23.377h132.438
		c2.968,11.458,11.916,20.406,23.379,23.377v165.014c-11.463,2.965-20.411,11.919-23.379,23.377H189.781
		c-2.968-11.458-11.915-20.412-23.376-23.377V140.912z"/>
	<g>
		<path fill="#88C540" d="M314.926,198.895c-3.881,0-7.038,3.155-7.038,7.037v58.928c0,3.876,3.157,7.033,7.038,7.033
			s7.039-3.157,7.039-7.033v-58.928C321.965,202.05,318.807,198.895,314.926,198.895z"/>
		<path fill="#88C540" d="M291.355,198.895c-3.879,0-7.039,3.155-7.039,7.037v41.246c0,5.866-4.771,10.639-10.639,10.639
			c-5.867,0-10.641-4.772-10.641-10.639v-41.246c0-3.882-3.153-7.037-7.036-7.037c-3.878,0-7.04,3.155-7.04,7.037v41.246
			c0,5.866-4.772,10.639-10.637,10.639c-5.867,0-10.641-4.772-10.641-10.639v-41.246c0-4.42-3.398-7.162-8.867-7.162
			c-10.326,0-28.777,10.269-28.777,30.732c0,7.131,5.799,12.928,12.934,12.928h10.635v4.754
			c0.088,13.541,11.174,24.555,24.712,24.555h0.162c6.605-0.041,12.925-2.737,17.52-7.439c4.636,4.748,11.015,7.444,17.687,7.444
			c6.019,0,11.82-2.196,16.338-6.182c5.273-4.647,8.322-11.351,8.367-18.384v-41.246
			C298.393,202.05,295.237,198.895,291.355,198.895z M213.607,214.531v13.822h-9.453
			C204.566,222.377,208.208,217.07,213.607,214.531z"/>
	</g>
	<path fill="#88C540" d="M256.001,185.248c6.511,4.885,15.741,3.563,20.624-2.95c1.914-2.547,2.947-5.649,2.947-8.833v-8.783
		c0-3.253-2.637-5.887-5.895-5.887c-3.254,0-5.893,2.634-5.893,5.887v8.844c0,1.624-1.32,2.941-2.945,2.941
		c-3.713,0-2.946-3.593-2.946-11.785c0-3.253-2.638-5.887-5.893-5.887s-5.892,2.634-5.892,5.887v8.844
		c0,1.624-1.317,2.941-2.946,2.941c-3.713,0-2.95-3.593-2.95-11.785c0-3.253-2.636-5.887-5.889-5.887
		c-3.257,0-5.895,2.634-5.895,5.887v8.844c-0.029,8.104,6.511,14.693,14.613,14.725
		C250.278,188.268,253.428,187.207,256.001,185.248z"/>
</g>
</svg>
