<?xml version="1.0" encoding="utf-8"?>
<!-- Generator: Adobe Illustrator 16.0.3, SVG Export Plug-In . SVG Version: 6.00 Build 0)  -->
<!DOCTYPE svg PUBLIC "-//W3C//DTD SVG 1.1//EN" "http://www.w3.org/Graphics/SVG/1.1/DTD/svg11.dtd">
<svg version="1.1" id="Layer_1" xmlns="http://www.w3.org/2000/svg" xmlns:xlink="http://www.w3.org/1999/xlink" x="0px" y="0px"
	 width="512px" height="512px" viewBox="0 0 512 512" enable-background="new 0 0 512 512" xml:space="preserve">
<g id="Quran_2_">
	<path fill="#88C540" d="M398.561,54.74H146.987c-23.156,0-41.932,18.778-41.932,41.93v318.665
		c0,23.156,18.775,41.926,41.932,41.926h251.574c4.633,0,8.385-3.75,8.385-8.385V63.127C406.945,58.497,403.193,54.74,398.561,54.74
		z M146.987,71.512h243.189v301.892c-264.574,0-252.501-3.434-268.351,8.383V96.669C121.825,82.776,133.091,71.512,146.987,71.512z
		 M314.699,390.176h33.543v13.502c-20.375-6.789-12.912-6.877-33.543,0V390.176z M390.176,440.49H146.987
		c-13.896,0-25.162-11.268-25.162-25.156c0-13.895,11.267-25.158,25.162-25.158h150.945c0,26.164-1.178,28.592,3.523,31.949
		c4.693,3.357,6.539,1.51,30.018-6.375c24.318,8.385,23.314,8.385,25.158,8.385c4.631,0,8.389-3.756,8.389-8.385v-25.574h25.156
		V440.49z"/>
	<path fill="#88C540" d="M155.372,323.09c9.263,0,16.771,7.51,16.771,16.768c0,4.637,3.755,8.389,8.386,8.389h150.945
		c4.633,0,8.387-3.752,8.387-8.389c0-9.258,7.506-16.768,16.771-16.768c4.631,0,8.389-3.758,8.389-8.385V130.216
		c0-4.637-3.758-8.39-8.389-8.39c-9.266,0-16.771-7.506-16.771-16.768c0-4.635-3.754-8.39-8.387-8.39H180.528
		c-4.631,0-8.386,3.755-8.386,8.39c0,9.262-7.508,16.768-16.771,16.768c-4.63,0-8.385,3.753-8.385,8.39v184.489
		C146.987,319.332,150.742,323.09,155.372,323.09z M163.754,137.51c11.803-3.057,21.015-12.27,24.07-24.066h136.353
		c3.055,11.797,12.268,21.01,24.064,24.066v169.896c-11.797,3.055-21.01,12.27-24.064,24.068H187.825
		c-3.056-11.799-12.268-21.014-24.07-24.068V137.51z"/>
	<path fill="#88C540" d="M318.746,178.297c-7.488-5.199-15.145-6.293-20.248-6.293c-8.09,0-15.916,2.816-19.934,7.179
		c-4.67,4.987-2.994,12.505,4.826,21.786c-12.178,5.87-20.824,9.399-26.593,11.758c-10.609,4.326-13.131,5.358-12.14,10.717
		c0.574,2.959,3.179,5.104,6.19,5.104h26.871c-11.684,7.752-18.016,16.247-18.865,25.3c-6.862-5.174-12.907-11.316-17.973-18.277
		c-9.89-13.504-13.424-24.47-15.759-31.727c-2.077-6.449-3.33-10.347-7.465-10.347c-0.637,0-1.326,0.099-2.11,0.301
		c-3.351,0.919-5.331,4.391-4.413,7.745c3.564,13.346,9.232,25.938,16.848,37.449c-7.828,10.563-16.959,18.472-21.372,18.472l0,0
		c-0.155,0-0.308-0.01-0.44-0.029c-2.079-0.328-3.932-4.33-4.886-7.667c-0.797-2.647-3.284-4.491-6.046-4.491
		c-0.614,0-1.231,0.091-1.829,0.266c-1.615,0.489-2.945,1.578-3.739,3.064c-0.8,1.488-0.969,3.198-0.481,4.818
		c4.167,13.731,11.472,16.622,16.869,16.622c8.745,0,19.61-7.486,29.907-20.561c8.256,9.887,18.821,17.834,30.656,23.034
		c0.697,0.26,1.434,0.393,2.178,0.393c1.949,0,3.82-0.926,4.994-2.461c2.492-3.115,1.037-5.725-0.371-8.25
		c-1.42-2.551-3.027-5.443-1.596-9.75c3.752-11.143,24.775-20.898,35.361-24.492c3.301-1.088,5.102-4.654,4.018-7.951
		c-0.852-2.59-3.25-4.332-5.975-4.332h-23.15c26.848-12.246,40.262-22.016,40.977-29.814
		C323.32,182.985,321.869,180.442,318.746,178.297z M289.072,186.893c3.035-1.52,6.412-2.319,9.809-2.319
		c3.258,0,6.49,0.729,9.424,2.13c-4.143,3.238-8.619,6.056-13.338,8.384C292.631,192.639,290.652,189.883,289.072,186.893z"/>
</g>
</svg>
